<svg xmlns="http://www.w3.org/2000/svg" width="1080.000000pt" height="1081.000000pt" viewBox="0 0 1080.000000 1081.000000" preserveAspectRatio="xMidYMid meet"><g transform="translate(0.000000,1081.000000) scale(0.100000,-0.100000)" fill="#000000" stroke="none"><path d="M0 5410 l0 -5400 5400 0 5400 0 0 5400 0 5400 -5400 0 -5400 0 0 -5400z m2825 721 c303 -72 502 -277 586 -603 28 -111 30 -354 4 -588 -2 -19 -7 -78 -10 -130 -3 -57 -11 -100 -19 -108 -21 -22 -195 -33 -516 -35 -248 -2 -321 1 -390 15 -285 55 -498 221 -574 449 -122 365 16 762 327 937 152 86 389 111 592 63z m1455 1 c0 -13 -23 -32 -37 -32 -11 0 -11 5 -3 20 10 19 40 28 40 12z m1730 -7 c8 -10 11 -39 8 -86 -3 -63 -7 -74 -31 -95 -31 -26 -62 -30 -100 -13 -37 17 -48 47 -45 124 3 64 5 70 28 76 47 13 127 10 140 -6z m1461 -7 c7 -13 9 -46 6 -87 -4 -55 -9 -69 -32 -88 -30 -27 -64 -29 -105 -8 -35 18 -42 40 -38 125 3 73 9 77 105 79 44 1 54 -2 64 -21z m-3661 -43 c0 -9 -9 -15 -24 -15 -47 0 -70 -46 -46 -91 7 -12 21 -19 40 -19 20 0 30 -5 30 -15 0 -10 -10 -15 -33 -15 -74 0 -109 98 -53 146 31 27 86 33 86 9z m200 -55 l0 -70 30 0 c20 0 30 -5 30 -15 0 -11 -12 -15 -50 -15 l-50 0 0 78 c0 80 3 92 27 92 10 0 13 -18 13 -70z m250 -15 c0 -69 -3 -85 -15 -85 -12 0 -15 16 -15 85 0 69 3 85 15 85 12 0 15 -16 15 -85z m235 39 c15 -25 28 -44 30 -42 2 2 6 21 8 41 5 42 11 52 26 42 6 -3 11 -40 11 -86 0 -69 -2 -79 -18 -79 -10 0 -30 21 -50 52 l-32 53 0 -53 c0 -40 -4 -52 -15 -52 -12 0 -15 16 -15 85 0 101 13 110 55 39z m275 -39 c0 -69 -3 -85 -15 -85 -12 0 -15 16 -15 85 0 69 3 85 15 85 12 0 15 -16 15 -85z m288 68 c2 -9 -7 -13 -27 -13 -22 0 -35 -7 -48 -26 -15 -24 -15 -29 -2 -53 10 -18 24 -27 47 -29 46 -5 43 -32 -3 -32 -66 0 -106 71 -74 131 19 36 97 51 107 22z m257 -48 c39 -104 39 -105 16 -105 -12 0 -21 7 -21 15 0 10 -10 15 -30 15 -18 0 -33 -6 -36 -15 -6 -15 -34 -21 -34 -8 0 5 12 43 26 86 32 95 47 97 79 12z m390 -225 l45 0 0 -86 0 -86 -40 3 c-21 2 -42 1 -45 -2 -3 -4 -5 -118 -5 -255 0 -217 -3 -254 -18 -284 -28 -55 -97 -65 -142 -20 -19 19 -20 34 -20 289 l0 270 -42 3 -43 3 -3 83 -3 82 46 0 45 0 0 99 0 99 88 30 87 29 3 -129 3 -128 44 0z m-1510 -2 c173 -43 291 -214 280 -407 -10 -173 -121 -311 -289 -356 -229 -62 -458 85 -496 320 -27 166 64 341 215 416 96 47 179 55 290 27z m2333 0 c24 -6 61 -27 85 -48 l42 -38 42 37 c51 46 104 62 194 62 89 0 156 -29 209 -89 64 -72 73 -114 77 -372 4 -202 2 -229 -14 -260 -22 -42 -67 -59 -110 -41 -55 22 -58 36 -63 291 -5 249 -8 265 -56 291 -29 15 -94 15 -123 0 -12 -7 -31 -27 -41 -44 -18 -29 -20 -51 -20 -219 0 -119 -4 -196 -11 -212 -15 -32 -70 -59 -104 -50 -14 3 -34 18 -45 31 -18 23 -20 42 -20 197 -1 189 -8 236 -41 272 -49 53 -140 48 -183 -9 -20 -26 -21 -45 -26 -269 l-5 -240 -28 -24 c-39 -33 -81 -31 -118 5 l-29 29 0 234 c0 263 7 307 63 380 70 92 183 122 325 86z m-1437 -8 c147 -46 244 -175 256 -341 13 -165 -74 -321 -215 -387 -50 -24 -70 -27 -157 -27 -91 0 -105 3 -160 30 -33 17 -62 31 -65 33 -3 1 -4 -67 -2 -151 2 -90 -1 -165 -7 -181 -22 -55 -113 -65 -153 -15 -17 20 -18 58 -18 478 l0 456 63 22 c34 12 70 25 80 28 12 5 17 2 17 -11 0 -15 4 -14 28 8 28 27 80 56 122 69 48 14 147 9 211 -11z m3606 0 c137 -48 217 -166 230 -337 l6 -73 -293 0 -292 0 6 -32 c10 -55 56 -111 115 -140 90 -46 186 -35 275 30 56 41 97 46 128 14 91 -90 -127 -241 -327 -227 -115 9 -203 50 -273 130 -65 74 -86 140 -87 265 0 94 3 111 27 163 51 109 129 181 231 212 66 21 188 18 254 -5z m-2679 -346 l-3 -356 -28 -24 c-39 -33 -81 -31 -118 5 l-29 29 0 351 0 351 90 0 91 0 -3 -356z m1460 11 c2 -322 1 -342 -17 -372 -33 -52 -109 -54 -148 -4 -9 12 -12 107 -13 369 l0 353 88 -3 87 -3 3 -340z m672 328 c0 -9 -74 -141 -165 -294 -91 -152 -165 -279 -165 -283 0 -3 62 -6 137 -6 127 0 138 -2 160 -22 32 -30 31 -81 -2 -113 l-24 -25 -271 0 c-240 0 -270 2 -270 16 0 9 72 136 160 283 87 147 162 274 165 282 4 12 -18 14 -150 12 l-155 -2 0 84 0 85 290 0 c265 0 290 -1 290 -17z m-2150 -831 c0 -11 -22 -32 -32 -32 -5 0 -4 9 2 20 11 20 30 28 30 12z m-440 -62 c0 -5 -13 -10 -30 -10 -42 0 -39 -27 5 -63 38 -30 44 -56 19 -81 -17 -18 -74 -22 -74 -6 0 6 13 10 29 10 53 0 53 43 1 73 -32 19 -40 53 -18 75 14 14 68 16 68 2z m206 -62 c35 -105 36 -108 25 -108 -5 0 -13 9 -16 20 -5 15 -15 20 -45 20 -29 0 -39 -4 -43 -20 -3 -11 -10 -20 -15 -20 -6 0 3 41 20 90 16 50 35 89 41 87 6 -2 21 -33 33 -69z m163 3 c-1 -80 3 -91 36 -91 33 0 45 27 45 99 0 39 4 61 11 61 16 0 6 -144 -11 -165 -13 -16 -57 -20 -77 -7 -18 12 -30 52 -32 115 -2 46 1 57 13 57 13 0 16 -13 15 -69z m334 40 c15 -14 22 -34 22 -61 0 -53 -28 -81 -89 -87 l-46 -6 0 93 0 93 46 -6 c28 -3 54 -13 67 -26z m227 19 c0 -5 -16 -10 -35 -10 -32 0 -35 -2 -35 -30 0 -28 3 -30 36 -30 22 0 33 -4 29 -10 -4 -6 -14 -10 -23 -9 -35 3 -42 -2 -42 -31 0 -28 3 -30 35 -30 19 0 35 -4 35 -10 0 -5 -20 -10 -45 -10 l-45 0 0 90 0 90 45 0 c25 0 45 -4 45 -10z m360 0 c0 -5 -16 -10 -35 -10 -32 0 -35 -2 -35 -30 0 -28 3 -30 36 -30 21 0 33 -4 29 -10 -4 -6 -12 -10 -18 -9 -37 4 -47 -2 -47 -31 0 -28 3 -30 35 -30 19 0 35 -4 35 -10 0 -5 -20 -10 -45 -10 l-45 0 0 90 0 90 45 0 c25 0 45 -4 45 -10z m354 -11 c10 -15 12 -28 6 -45 -6 -14 -6 -26 0 -29 16 -10 12 -52 -6 -70 -11 -10 -29 -15 -53 -13 l-36 3 -3 88 -3 87 40 0 c29 0 44 -6 55 -21z m226 11 c0 -5 -16 -10 -35 -10 -32 0 -35 -2 -35 -30 0 -28 3 -30 36 -30 21 0 33 -4 29 -10 -3 -5 -19 -10 -36 -10 -26 0 -29 -3 -29 -30 0 -28 3 -30 35 -30 19 0 35 -4 35 -10 0 -5 -20 -10 -45 -10 l-45 0 0 90 0 90 45 0 c25 0 45 -4 45 -10z m171 -46 l32 -56 31 56 c17 31 36 56 42 56 14 0 18 -166 4 -175 -6 -4 -10 21 -10 67 l0 73 -31 -52 c-17 -29 -34 -53 -37 -53 -4 0 -18 21 -32 47 l-25 47 -3 -67 c-4 -100 -22 -82 -22 23 0 53 4 90 10 90 5 0 24 -25 41 -56z m504 46 c-3 -5 -19 -10 -36 -10 -26 0 -29 -3 -29 -30 0 -27 3 -30 30 -30 17 0 30 -4 30 -10 0 -5 -13 -8 -30 -6 -28 3 -30 1 -30 -30 0 -32 2 -34 36 -34 21 0 33 -4 29 -10 -7 -12 -84 -14 -86 -2 -1 4 -3 44 -4 90 l-3 82 50 0 c30 0 47 -4 43 -10z m190 0 c-3 -5 -17 -10 -31 -10 -34 0 -32 -33 5 -59 56 -40 41 -101 -25 -101 -19 0 -34 5 -34 10 0 6 15 10 34 10 53 0 55 26 6 71 -40 37 -45 61 -16 81 17 12 68 10 61 -2z m215 0 c0 -5 -11 -10 -25 -10 -25 0 -25 -1 -25 -80 0 -47 -4 -80 -10 -80 -6 0 -10 33 -10 80 0 73 -2 80 -20 80 -11 0 -20 5 -20 10 0 6 25 10 55 10 30 0 55 -4 55 -10z m176 -62 c35 -105 36 -108 25 -108 -5 0 -13 9 -16 20 -5 15 -15 20 -45 20 -29 0 -39 -4 -43 -20 -3 -11 -10 -20 -15 -20 -6 0 3 41 20 90 16 50 35 89 41 87 6 -2 21 -33 33 -69z m228 56 c23 -23 20 -50 -9 -71 l-25 -18 31 -38 c40 -48 20 -48 -26 1 l-34 37 -1 -37 c0 -21 -4 -38 -10 -38 -6 0 -10 37 -10 90 l0 90 34 0 c19 0 42 -7 50 -16z m-1019 -84 c-3 -5 -17 -10 -30 -10 -13 0 -27 5 -30 10 -4 6 8 10 30 10 22 0 34 -4 30 -10z"></path><path d="M2485 6120 c-91 -13 -178 -44 -255 -89 -38 -23 -71 -45 -74 -49 -2 -4 138 -7 312 -7 l317 0 83 -28 c118 -40 222 -113 299 -212 35 -44 80 -102 102 -130 53 -68 79 -116 112 -210 l28 -80 -5 65 c-27 312 -192 565 -440 675 -129 57 -338 86 -479 65z"></path><path d="M2237 5950 c-65 -4 -122 -11 -128 -17 -9 -9 -11 -30 -24 -202 -18 -249 -18 -297 -1 -381 19 -93 77 -224 124 -280 l30 -35 -14 60 c-31 134 -12 300 48 424 43 88 160 206 243 245 162 76 386 74 553 -4 36 -17 67 -29 69 -27 10 10 -121 117 -184 150 -111 58 -170 69 -398 71 -110 2 -253 0 -318 -4z"></path><path d="M2038 5858 c-130 -173 -179 -432 -123 -654 8 -32 33 -96 55 -140 55 -112 159 -211 292 -277 105 -53 174 -73 280 -82 l73 -6 -70 30 c-92 40 -200 123 -242 186 -19 28 -57 75 -84 104 -63 69 -135 212 -155 311 -19 91 -20 197 -4 398 7 84 10 155 8 158 -3 2 -16 -10 -30 -28z"></path><path d="M2678 5790 c-177 -32 -305 -127 -383 -285 -48 -95 -69 -198 -61 -302 11 -150 55 -252 148 -339 105 -100 229 -149 398 -159 l105 -6 -50 18 c-119 43 -218 131 -250 221 -23 64 -31 198 -16 258 30 118 119 232 213 274 77 34 169 45 256 32 149 -24 259 -99 321 -219 36 -69 40 -50 12 59 -57 223 -206 380 -410 433 -77 20 -217 27 -283 15z"></path><path d="M2850 5474 c-152 -40 -267 -193 -272 -361 -4 -147 46 -254 153 -325 68 -45 125 -64 214 -73 l70 -7 -52 27 c-62 31 -119 94 -133 144 -15 54 -12 142 6 196 24 70 95 139 163 159 148 43 285 -10 358 -139 l34 -60 -3 75 c-6 131 -86 263 -196 323 -101 55 -231 71 -342 41z"></path><path d="M3033 5230 c-60 -12 -96 -34 -137 -82 -89 -104 -84 -270 11 -360 15 -15 51 -37 78 -50 45 -20 65 -22 203 -22 119 0 156 3 167 15 11 10 15 49 17 159 3 140 2 147 -24 195 -14 28 -39 62 -55 77 -58 55 -172 85 -260 68z"></path><path d="M5270 6021 c0 -5 -3 -16 -6 -25 -4 -11 0 -16 14 -16 15 0 19 5 15 20 -6 22 -23 38 -23 21z"></path><path d="M4043 5639 c-112 -20 -174 -98 -175 -224 -2 -126 93 -225 214 -225 62 0 141 40 172 87 115 177 -13 396 -211 362z"></path><path d="M4901 5639 c-96 -18 -161 -106 -161 -216 0 -141 78 -226 210 -227 112 -2 185 58 211 172 38 165 -94 302 -260 271z"></path><path d="M8461 5638 c-42 -21 -101 -87 -101 -115 0 -10 39 -13 200 -13 l200 0 -15 37 c-32 77 -90 113 -182 113 -39 0 -72 -7 -102 -22z"></path><path d="M5721 4835 c-6 -16 -14 -36 -16 -42 -3 -9 6 -13 25 -13 33 0 34 1 15 50 l-13 35 -11 -30z"></path><path d="M6170 4810 c0 -68 1 -70 25 -70 30 0 75 41 75 68 0 33 -38 72 -71 72 l-29 0 0 -70z"></path><path d="M7130 4850 c0 -25 4 -30 25 -30 29 0 50 31 33 48 -7 7 -22 12 -35 12 -19 0 -23 -5 -23 -30z"></path><path d="M7130 4770 c0 -29 2 -31 33 -28 27 2 32 7 32 28 0 21 -5 26 -32 28 -31 3 -33 1 -33 -28z"></path><path d="M8641 4835 c-6 -16 -14 -36 -16 -42 -3 -9 6 -13 25 -13 33 0 34 1 15 50 l-13 35 -11 -30z"></path><path d="M8850 4850 c0 -28 3 -31 28 -28 21 2 27 8 27 28 0 20 -6 26 -27 28 -25 3 -28 0 -28 -28z"></path></g></svg>